<svg width="774" height="437" viewBox="0 0 774 437" fill="none" xmlns="http://www.w3.org/2000/svg">
<path d="M86.125 81.75H76.375C69.5 81.75 64 76 64 69.125C64 62.375 69.625 56.875 76.375 56.875H125.25C132.125 56.875 137.75 62.625 137.75 69.75C137.75 76.5 132.125 82 125.25 82H114.875V133.875C114.875 141.75 108.375 148.125 100.5 148.125C92.625 148.125 86.125 141.625 86.125 133.625V81.75ZM168.655 163.875C168.655 171.625 162.28 177.75 154.53 177.75C146.905 177.75 140.905 171.625 140.905 164V92.625C140.905 85 146.905 78.625 154.655 78.625C162.28 78.625 168.655 85 168.655 92.75V163.875ZM139.905 60.25C139.905 52.125 146.405 45.625 154.405 45.625C162.405 45.625 169.03 51.875 169.03 59.375C169.03 68.5 162.405 75.875 154.405 75.875C146.405 75.875 139.905 68.875 139.905 60.25ZM203.925 119.875C206.675 122.75 208.05 123.875 210.8 124.75C213.05 125.375 215.55 125.625 218.425 125.625C222.05 125.625 225.3 125.25 230.175 123.875C233.3 123.125 235.55 122.625 237.175 122.625C242.675 122.625 247.425 127.125 247.425 132.25C247.425 135.375 245.925 138.5 243.675 140.5C238.675 145 227.3 148.125 215.8 148.125C191.3 148.125 174.675 133.875 174.675 113.25C174.675 93.625 190.8 78.625 211.8 78.625C230.8 78.625 247.925 93.5 247.925 110.125C247.925 117.125 244.675 119.875 236.55 119.875H203.925ZM212.05 99C207.925 99 205.425 101.5 204.175 106.375H219.175C218.55 101.625 216.05 99 212.05 99ZM290.434 98.875C285.309 97.625 284.434 97.5 283.059 97.5C281.434 97.5 280.059 98.375 280.059 99.25C280.059 100.625 281.434 101.5 285.059 102.5C288.809 103.625 293.184 105.125 295.309 105.75C305.809 109.375 312.184 116.875 312.184 125.5C312.184 138.625 299.559 148.375 282.434 148.375C264.684 148.375 251.309 141.625 251.309 132.5C251.309 126.875 256.059 122.375 262.184 122.375C265.309 122.375 266.934 122.75 273.059 125C277.309 126.625 279.434 127.125 281.684 127.125C284.059 127.125 285.184 126.625 285.184 125.25C285.184 123.75 283.559 122.75 279.059 121.75C274.434 120.375 269.559 119 266.934 118.125C258.559 115.125 253.559 108.75 253.559 100.75C253.559 87.25 265.809 78.25 284.434 78.25C299.309 78.25 310.434 83.875 310.434 91.375C310.434 96.75 306.184 100.875 300.184 100.875C298.809 100.875 297.309 100.625 294.059 99.875L290.434 98.875ZM323.907 102.375H322.907C316.032 102.25 310.532 96.875 310.532 90.375C310.532 84.25 316.032 79.25 322.657 79.25H323.907V73.5C323.907 65.625 330.282 59.375 338.032 59.375C345.657 59.375 351.907 65.75 351.907 73.625V79.25H353.532C360.032 79.25 365.282 84.375 365.282 90.75C365.282 97.125 360.157 102.25 353.532 102.5L351.782 102.625V133.875C351.782 141.75 345.532 148.125 337.907 148.125C330.157 148.125 323.907 141.75 323.907 133.875V102.375ZM393.378 119.875C396.128 122.75 397.503 123.875 400.253 124.75C402.503 125.375 405.003 125.625 407.878 125.625C411.503 125.625 414.753 125.25 419.628 123.875C422.753 123.125 425.003 122.625 426.628 122.625C432.128 122.625 436.878 127.125 436.878 132.25C436.878 135.375 435.378 138.5 433.128 140.5C428.128 145 416.753 148.125 405.253 148.125C380.753 148.125 364.128 133.875 364.128 113.25C364.128 93.625 380.253 78.625 401.253 78.625C420.253 78.625 437.378 93.5 437.378 110.125C437.378 117.125 434.128 119.875 426.003 119.875H393.378ZM401.503 99C397.378 99 394.878 101.5 393.628 106.375H408.628C408.003 101.625 405.503 99 401.503 99ZM467.887 85C469.512 83.875 470.762 83.125 471.512 82.5C476.262 79.875 481.512 78.375 486.762 78.375C501.387 78.375 512.887 88.75 512.887 102V134.125C512.887 141.875 506.637 148.25 499.137 148.25C491.262 148.25 484.762 142 484.762 134.25V108.25C484.762 104.25 481.762 101.25 478.012 101.25C474.137 101.25 470.887 104.25 470.887 108.25V134.125C470.887 141.875 464.637 148.125 456.887 148.125C449.262 148.125 443.137 141.875 443.137 134.125V92.375C443.137 84.75 449.262 78.5 456.887 78.5C459.512 78.5 463.387 80.75 467.887 85ZM548.413 134C548.413 141.875 542.038 148.125 534.413 148.125C526.663 148.125 520.413 141.875 520.413 134.125V92.375C520.413 84.75 526.788 78.5 534.538 78.5C542.163 78.5 548.413 84.875 548.413 92.625V134ZM519.788 61C519.788 53 526.413 46.375 534.538 46.375C542.663 46.375 549.163 53 549.163 61.25C549.163 69.25 542.663 75.875 534.538 75.875C526.413 75.875 519.788 69.125 519.788 61ZM580.68 85C582.305 83.875 583.555 83.125 584.305 82.5C589.055 79.875 594.305 78.375 599.555 78.375C614.18 78.375 625.68 88.75 625.68 102V134.125C625.68 141.875 619.43 148.25 611.93 148.25C604.055 148.25 597.555 142 597.555 134.25V108.25C597.555 104.25 594.555 101.25 590.805 101.25C586.93 101.25 583.68 104.25 583.68 108.25V134.125C583.68 141.875 577.43 148.125 569.68 148.125C562.055 148.125 555.93 141.875 555.93 134.125V92.375C555.93 84.75 562.055 78.5 569.68 78.5C572.305 78.5 576.18 80.75 580.68 85ZM680.081 84C684.831 80.375 688.956 78.375 691.581 78.375C699.206 78.375 705.331 84.375 705.331 92.125V134.125C705.331 141.75 699.081 148.125 691.456 148.125C688.831 148.125 684.706 145.875 680.081 142.125C674.331 147.125 671.956 148 663.956 148C646.081 148 631.706 133 631.706 114C631.706 94.25 646.331 78.25 664.456 78.25C671.456 78.25 674.331 79.25 680.081 84ZM668.831 102.75C663.331 102.75 659.456 107.5 659.456 114.125C659.456 120 663.706 124.625 668.831 124.625C674.206 124.625 678.331 119.875 678.331 113.75C678.331 107.375 674.456 102.75 668.831 102.75Z" fill="#FF0F00"/>
<path d="M86.125 81.75H92.625V75.25H86.125V81.75ZM114.875 82V75.5H108.375V82H114.875ZM86.125 75.25H76.375V88.25H86.125V75.25ZM76.375 75.25C73.2577 75.25 70.5 72.5804 70.5 69.125H57.5C57.5 79.4196 65.7423 88.25 76.375 88.25V75.25ZM70.5 69.125C70.5 66.0503 73.1288 63.375 76.375 63.375V50.375C66.1212 50.375 57.5 58.6997 57.5 69.125H70.5ZM76.375 63.375H125.25V50.375H76.375V63.375ZM125.25 63.375C128.37 63.375 131.25 66.047 131.25 69.75H144.25C144.25 59.203 135.88 50.375 125.25 50.375V63.375ZM131.25 69.75C131.25 72.7827 128.664 75.5 125.25 75.5V88.5C135.586 88.5 144.25 80.2173 144.25 69.75H131.25ZM125.25 75.5H114.875V88.5H125.25V75.5ZM108.375 82V133.875H121.375V82H108.375ZM108.375 133.875C108.375 138.087 104.859 141.625 100.5 141.625V154.625C111.891 154.625 121.375 145.413 121.375 133.875H108.375ZM100.5 141.625C96.2514 141.625 92.625 138.072 92.625 133.625H79.625C79.625 145.178 88.9986 154.625 100.5 154.625V141.625ZM92.625 133.625V81.75H79.625V133.625H92.625ZM162.155 163.875C162.155 167.885 158.843 171.25 154.53 171.25V184.25C165.718 184.25 175.155 175.365 175.155 163.875H162.155ZM154.53 171.25C150.572 171.25 147.405 168.113 147.405 164H134.405C134.405 175.137 143.238 184.25 154.53 184.25V171.25ZM147.405 164V92.625H134.405V164H147.405ZM147.405 92.625C147.405 88.3975 150.685 85.125 154.655 85.125V72.125C143.126 72.125 134.405 81.6025 134.405 92.625H147.405ZM154.655 85.125C158.653 85.125 162.155 88.5523 162.155 92.75H175.155C175.155 81.4477 165.908 72.125 154.655 72.125V85.125ZM162.155 92.75V163.875H175.155V92.75H162.155ZM146.405 60.25C146.405 55.6784 150.031 52.125 154.405 52.125V39.125C142.779 39.125 133.405 48.5716 133.405 60.25H146.405ZM154.405 52.125C159.192 52.125 162.53 55.8305 162.53 59.375H175.53C175.53 47.9195 165.618 39.125 154.405 39.125V52.125ZM162.53 59.375C162.53 65.6426 158.124 69.375 154.405 69.375V82.375C166.686 82.375 175.53 71.3574 175.53 59.375H162.53ZM154.405 69.375C150.443 69.375 146.405 65.7499 146.405 60.25H133.405C133.405 72.0001 142.368 82.375 154.405 82.375V69.375ZM203.925 119.875V113.375H188.713L199.228 124.368L203.925 119.875ZM210.8 124.75L208.829 130.944L208.944 130.981L209.06 131.013L210.8 124.75ZM230.175 123.875L228.658 117.554L228.533 117.584L228.41 117.619L230.175 123.875ZM243.675 140.5L239.356 135.642L239.341 135.655L239.327 135.669L243.675 140.5ZM204.175 106.375L197.878 104.761L195.798 112.875H204.175V106.375ZM219.175 106.375V112.875H226.586L225.619 105.527L219.175 106.375ZM199.228 124.368C202.23 127.507 204.522 129.574 208.829 130.944L212.771 118.556C211.944 118.293 211.564 118.081 211.185 117.806C210.665 117.427 209.978 116.8 208.622 115.382L199.228 124.368ZM209.06 131.013C212.067 131.848 215.199 132.125 218.425 132.125V119.125C215.901 119.125 214.033 118.902 212.539 118.487L209.06 131.013ZM218.425 132.125C222.675 132.125 226.518 131.66 231.939 130.131L228.41 117.619C224.082 118.84 221.425 119.125 218.425 119.125V132.125ZM231.692 130.196C235.078 129.383 236.488 129.125 237.175 129.125V116.125C234.612 116.125 231.521 116.867 228.658 117.554L231.692 130.196ZM237.175 129.125C239.459 129.125 240.925 131.077 240.925 132.25H253.925C253.925 123.173 245.891 116.125 237.175 116.125V129.125ZM240.925 132.25C240.925 133.421 240.293 134.809 239.356 135.642L247.993 145.358C251.557 142.191 253.925 137.329 253.925 132.25H240.925ZM239.327 135.669C237.91 136.944 234.932 138.506 230.458 139.731C226.135 140.915 220.995 141.625 215.8 141.625V154.625C222.104 154.625 228.402 153.773 233.892 152.269C239.231 150.807 244.44 148.556 248.023 145.331L239.327 135.669ZM215.8 141.625C204.78 141.625 196.087 138.426 190.261 133.471C184.518 128.585 181.175 121.688 181.175 113.25H168.175C168.175 125.437 173.144 135.977 181.838 143.373C190.451 150.699 202.319 154.625 215.8 154.625V141.625ZM181.175 113.25C181.175 97.6389 193.95 85.125 211.8 85.125V72.125C187.649 72.125 168.175 89.6111 168.175 113.25H181.175ZM211.8 85.125C219.632 85.125 227.169 88.2095 232.718 93.0423C238.29 97.8946 241.425 104.093 241.425 110.125H254.425C254.425 99.5324 248.997 89.9804 241.256 83.2389C233.493 76.478 222.967 72.125 211.8 72.125V85.125ZM241.425 110.125C241.425 111.411 241.27 112.122 241.15 112.468C241.095 112.626 241.054 112.689 241.05 112.696C241.047 112.7 241.048 112.698 241.053 112.692C241.058 112.687 241.062 112.683 241.061 112.684C241.042 112.7 240.172 113.375 236.55 113.375V126.375C241.053 126.375 245.87 125.675 249.507 122.566C253.411 119.23 254.425 114.5 254.425 110.125H241.425ZM236.55 113.375H203.925V126.375H236.55V113.375ZM212.05 92.5C208.549 92.5 205.215 93.6173 202.553 96.1511C200.052 98.5313 198.673 101.66 197.878 104.761L210.471 107.989C210.926 106.215 211.422 105.656 211.516 105.568C211.536 105.549 211.54 105.547 211.531 105.553C211.521 105.559 211.516 105.561 211.523 105.558C211.532 105.555 211.679 105.5 212.05 105.5V92.5ZM204.175 112.875H219.175V99.875H204.175V112.875ZM225.619 105.527C225.19 102.263 224.02 98.9534 221.561 96.3987C218.979 93.7157 215.582 92.5 212.05 92.5V105.5C212.335 105.5 212.414 105.545 212.364 105.526C212.301 105.501 212.231 105.451 212.195 105.414C212.142 105.359 212.535 105.737 212.73 107.223L225.619 105.527ZM290.434 98.875L292.162 92.609L292.068 92.5832L291.974 92.5601L290.434 98.875ZM285.059 102.5L286.926 96.2741L286.857 96.2533L286.787 96.234L285.059 102.5ZM295.309 105.75L297.43 99.6059L297.287 99.5567L297.143 99.5141L295.309 105.75ZM273.059 125L275.38 118.929L275.34 118.913L275.3 118.899L273.059 125ZM279.059 121.75L277.206 127.98L277.425 128.046L277.649 128.095L279.059 121.75ZM266.934 118.125L264.742 124.244L264.81 124.269L264.878 124.291L266.934 118.125ZM294.059 99.875L292.33 106.141L292.463 106.178L292.597 106.209L294.059 99.875ZM291.974 92.5601C286.983 91.3429 285.346 91 283.059 91V104C283.521 104 283.634 103.907 288.893 105.19L291.974 92.5601ZM283.059 91C281.146 91 279.227 91.4998 277.605 92.4732C276.333 93.2364 273.559 95.3879 273.559 99.25H286.559C286.559 100.78 285.956 101.899 285.493 102.515C285.033 103.126 284.562 103.46 284.293 103.621C283.765 103.938 283.346 104 283.059 104V91ZM273.559 99.25C273.559 102.782 275.631 105.155 277.668 106.473C279.361 107.568 281.445 108.246 283.33 108.766L286.787 96.234C285.997 96.0162 285.446 95.8363 285.069 95.6922C284.674 95.5411 284.614 95.4834 284.73 95.5584C284.851 95.6366 285.35 95.9794 285.811 96.7028C286.326 97.511 286.559 98.4228 286.559 99.25H273.559ZM283.191 108.726C284.986 109.265 286.953 109.899 288.785 110.495C290.556 111.07 292.3 111.64 293.475 111.986L297.143 99.5141C296.192 99.2346 294.686 98.7427 292.801 98.1304C290.977 97.5381 288.881 96.8605 286.926 96.2741L283.191 108.726ZM293.187 111.894C301.996 114.935 305.684 120.517 305.684 125.5H318.684C318.684 113.233 309.621 103.815 297.43 99.6059L293.187 111.894ZM305.684 125.5C305.684 133.557 297.651 141.875 282.434 141.875V154.875C301.466 154.875 318.684 143.693 318.684 125.5H305.684ZM282.434 141.875C274.285 141.875 267.578 140.311 263.161 138.065C258.544 135.718 257.809 133.486 257.809 132.5H244.809C244.809 140.639 250.761 146.344 257.269 149.653C263.976 153.064 272.832 154.875 282.434 154.875V141.875ZM257.809 132.5C257.809 130.863 259.237 128.875 262.184 128.875V115.875C252.88 115.875 244.809 122.887 244.809 132.5H257.809ZM262.184 128.875C263.383 128.875 264.039 128.939 264.979 129.164C266.127 129.44 267.736 129.969 270.817 131.101L275.3 118.899C269.031 116.596 266.509 115.875 262.184 115.875V128.875ZM270.737 131.071C275.188 132.773 278.216 133.625 281.684 133.625V120.625C280.651 120.625 279.429 120.477 275.38 118.929L270.737 131.071ZM281.684 133.625C283.039 133.625 285.253 133.533 287.293 132.485C288.467 131.883 289.686 130.913 290.56 129.44C291.424 127.986 291.684 126.489 291.684 125.25H278.684C278.684 124.698 278.803 123.78 279.381 122.806C279.97 121.813 280.76 121.227 281.355 120.921C281.634 120.778 281.862 120.699 282.002 120.658C282.141 120.617 282.226 120.604 282.233 120.603C282.243 120.601 282.204 120.608 282.105 120.614C282.007 120.62 281.869 120.625 281.684 120.625V133.625ZM291.684 125.25C291.684 121.397 289.255 118.959 287.072 117.691C285.183 116.594 282.815 115.926 280.469 115.405L277.649 128.095C278.646 128.317 279.37 128.514 279.886 128.683C280.422 128.859 280.588 128.959 280.545 128.934C280.506 128.911 280.01 128.623 279.522 127.921C278.962 127.115 278.684 126.155 278.684 125.25H291.684ZM280.911 115.52C276.099 114.089 271.481 112.789 268.989 111.959L264.878 124.291C267.636 125.211 272.768 126.661 277.206 127.98L280.911 115.52ZM269.126 112.006C262.871 109.765 260.059 105.543 260.059 100.75H247.059C247.059 111.957 254.247 120.485 264.742 124.244L269.126 112.006ZM260.059 100.75C260.059 96.2036 262.024 92.478 265.846 89.6864C269.831 86.7754 276.087 84.75 284.434 84.75V71.75C274.155 71.75 264.974 74.2246 258.178 79.1886C251.218 84.272 247.059 91.7964 247.059 100.75H260.059ZM284.434 84.75C291.148 84.75 296.58 86.0338 300.081 87.802C303.801 89.6808 303.934 91.2327 303.934 91.375H316.934C316.934 84.0173 311.503 79.0067 305.942 76.198C300.162 73.2787 292.594 71.75 284.434 71.75V84.75ZM303.934 91.375C303.934 92.2826 303.602 92.9388 303.108 93.4037C302.6 93.8807 301.671 94.375 300.184 94.375V107.375C309.386 107.375 316.934 100.715 316.934 91.375H303.934ZM300.184 94.375C299.636 94.375 298.798 94.2978 295.52 93.5415L292.597 106.209C295.819 106.952 297.981 107.375 300.184 107.375V94.375ZM295.787 93.609L292.162 92.609L288.705 105.141L292.33 106.141L295.787 93.609ZM323.907 102.375H330.407V95.875H323.907V102.375ZM322.907 102.375L322.789 108.874L322.848 108.875H322.907V102.375ZM323.907 79.25V85.75H330.407V79.25H323.907ZM351.907 79.25H345.407V85.75H351.907V79.25ZM353.532 102.5L353.287 96.0046L353.178 96.0087L353.069 96.0165L353.532 102.5ZM351.782 102.625L351.319 96.1415L345.282 96.5727V102.625H351.782ZM323.907 95.875H322.907V108.875H323.907V95.875ZM323.025 95.8761C319.408 95.8103 317.032 93.0519 317.032 90.375H304.032C304.032 100.698 312.657 108.69 322.789 108.874L323.025 95.8761ZM317.032 90.375C317.032 88.372 319.066 85.75 322.657 85.75V72.75C312.999 72.75 304.032 80.128 304.032 90.375H317.032ZM322.657 85.75H323.907V72.75H322.657V85.75ZM330.407 79.25V73.5H317.407V79.25H330.407ZM330.407 73.5C330.407 69.2523 333.835 65.875 338.032 65.875V52.875C326.73 52.875 317.407 61.9977 317.407 73.5H330.407ZM338.032 65.875C341.918 65.875 345.407 69.1885 345.407 73.625H358.407C358.407 62.3114 349.397 52.875 338.032 52.875V65.875ZM345.407 73.625V79.25H358.407V73.625H345.407ZM351.907 85.75H353.532V72.75H351.907V85.75ZM353.532 85.75C356.58 85.75 358.782 88.1008 358.782 90.75H371.782C371.782 80.6492 363.485 72.75 353.532 72.75V85.75ZM358.782 90.75C358.782 93.4058 356.649 95.8778 353.287 96.0046L353.777 108.995C363.665 108.622 371.782 100.844 371.782 90.75H358.782ZM353.069 96.0165L351.319 96.1415L352.245 109.108L353.995 108.983L353.069 96.0165ZM345.282 102.625V133.875H358.282V102.625H345.282ZM345.282 133.875C345.282 138.311 341.793 141.625 337.907 141.625V154.625C349.272 154.625 358.282 145.189 358.282 133.875H345.282ZM337.907 141.625C333.859 141.625 330.407 138.273 330.407 133.875H317.407C317.407 145.227 326.455 154.625 337.907 154.625V141.625ZM330.407 133.875V102.375H317.407V133.875H330.407ZM393.378 119.875V113.375H378.166L388.681 124.368L393.378 119.875ZM400.253 124.75L398.282 130.944L398.397 130.981L398.513 131.013L400.253 124.75ZM419.628 123.875L418.111 117.554L417.987 117.584L417.863 117.619L419.628 123.875ZM433.128 140.5L428.81 135.642L428.795 135.655L428.78 135.669L433.128 140.5ZM393.628 106.375L387.332 104.761L385.251 112.875H393.628V106.375ZM408.628 106.375V112.875H416.039L415.072 105.527L408.628 106.375ZM388.681 124.368C391.684 127.507 393.975 129.574 398.282 130.944L402.224 118.556C401.397 118.293 401.017 118.081 400.639 117.806C400.118 117.427 399.431 116.8 398.075 115.382L388.681 124.368ZM398.513 131.013C401.52 131.848 404.652 132.125 407.878 132.125V119.125C405.354 119.125 403.486 118.902 401.993 118.487L398.513 131.013ZM407.878 132.125C412.128 132.125 415.971 131.66 421.392 130.131L417.863 117.619C413.535 118.84 410.878 119.125 407.878 119.125V132.125ZM421.145 130.196C424.532 129.383 425.941 129.125 426.628 129.125V116.125C424.065 116.125 420.974 116.867 418.111 117.554L421.145 130.196ZM426.628 129.125C428.912 129.125 430.378 131.077 430.378 132.25H443.378C443.378 123.173 435.344 116.125 426.628 116.125V129.125ZM430.378 132.25C430.378 133.421 429.746 134.809 428.81 135.642L437.446 145.358C441.01 142.191 443.378 137.329 443.378 132.25H430.378ZM428.78 135.669C427.363 136.944 424.385 138.506 419.911 139.731C415.588 140.915 410.448 141.625 405.253 141.625V154.625C411.558 154.625 417.855 153.773 423.345 152.269C428.684 150.807 433.893 148.556 437.476 145.331L428.78 135.669ZM405.253 141.625C394.233 141.625 385.54 138.426 379.715 133.471C373.971 128.585 370.628 121.688 370.628 113.25H357.628C357.628 125.437 362.597 135.977 371.291 143.373C379.904 150.699 391.772 154.625 405.253 154.625V141.625ZM370.628 113.25C370.628 97.6389 383.404 85.125 401.253 85.125V72.125C377.102 72.125 357.628 89.6111 357.628 113.25H370.628ZM401.253 85.125C409.085 85.125 416.622 88.2095 422.172 93.0423C427.743 97.8946 430.878 104.093 430.878 110.125H443.878C443.878 99.5324 438.45 89.9804 430.709 83.2389C422.946 76.478 412.421 72.125 401.253 72.125V85.125ZM430.878 110.125C430.878 111.411 430.724 112.122 430.603 112.468C430.548 112.626 430.507 112.689 430.503 112.696C430.5 112.7 430.501 112.698 430.506 112.692C430.511 112.687 430.515 112.683 430.514 112.684C430.495 112.7 429.625 113.375 426.003 113.375V126.375C430.506 126.375 435.323 125.675 438.96 122.566C442.864 119.23 443.878 114.5 443.878 110.125H430.878ZM426.003 113.375H393.378V126.375H426.003V113.375ZM401.503 92.5C398.002 92.5 394.668 93.6173 392.006 96.1511C389.505 98.5313 388.127 101.66 387.332 104.761L399.924 107.989C400.379 106.215 400.876 105.656 400.969 105.568C400.989 105.549 400.993 105.547 400.984 105.553C400.974 105.559 400.969 105.561 400.976 105.558C400.985 105.555 401.132 105.5 401.503 105.5V92.5ZM393.628 112.875H408.628V99.875H393.628V112.875ZM415.072 105.527C414.643 102.263 413.473 98.9534 411.014 96.3987C408.432 93.7157 405.035 92.5 401.503 92.5V105.5C401.788 105.5 401.867 105.545 401.817 105.526C401.754 105.501 401.684 105.451 401.648 105.414C401.595 105.359 401.988 105.737 402.183 107.223L415.072 105.527ZM467.887 85L463.424 89.7256L467.254 93.3435L471.587 90.3443L467.887 85ZM471.512 82.5L468.368 76.8109L467.826 77.1103L467.351 77.5065L471.512 82.5ZM471.587 90.3443C472.337 89.825 472.96 89.4192 473.633 88.9708C474.214 88.5837 474.993 88.06 475.673 87.4934L467.351 77.5065C467.351 77.5065 467.332 77.5223 467.287 77.5561C467.243 77.5896 467.182 77.6343 467.099 77.6928C466.929 77.8136 466.713 77.9599 466.422 78.1542C465.876 78.5183 465.062 79.05 464.187 79.6557L471.587 90.3443ZM474.656 88.1891C478.567 86.0275 482.745 84.875 486.762 84.875V71.875C480.279 71.875 473.956 73.7225 468.368 76.8109L474.656 88.1891ZM486.762 84.875C498.432 84.875 506.387 92.9437 506.387 102H519.387C519.387 84.5563 504.341 71.875 486.762 71.875V84.875ZM506.387 102V134.125H519.387V102H506.387ZM506.387 134.125C506.387 138.437 502.896 141.75 499.137 141.75V154.75C510.377 154.75 519.387 145.313 519.387 134.125H506.387ZM499.137 141.75C494.664 141.75 491.262 138.225 491.262 134.25H478.262C478.262 145.775 487.86 154.75 499.137 154.75V141.75ZM491.262 134.25V108.25H478.262V134.25H491.262ZM491.262 108.25C491.262 100.816 485.506 94.75 478.012 94.75V107.75C478.075 107.75 478.101 107.761 478.105 107.763C478.113 107.766 478.124 107.772 478.139 107.788C478.154 107.803 478.18 107.835 478.205 107.897C478.229 107.957 478.262 108.069 478.262 108.25H491.262ZM478.012 94.75C470.774 94.75 464.387 100.437 464.387 108.25H477.387C477.387 108.141 477.407 108.082 477.42 108.051C477.436 108.015 477.462 107.973 477.507 107.93C477.599 107.841 477.766 107.75 478.012 107.75V94.75ZM464.387 108.25V134.125H477.387V108.25H464.387ZM464.387 134.125C464.387 138.285 461.047 141.625 456.887 141.625V154.625C468.227 154.625 477.387 145.465 477.387 134.125H464.387ZM456.887 141.625C452.966 141.625 449.637 138.4 449.637 134.125H436.637C436.637 145.35 445.558 154.625 456.887 154.625V141.625ZM449.637 134.125V92.375H436.637V134.125H449.637ZM449.637 92.375C449.637 88.263 452.928 85 456.887 85V72C445.595 72 436.637 81.237 436.637 92.375H449.637ZM456.887 85C456.514 85 456.947 84.9114 458.388 85.7588C459.702 86.532 461.406 87.8199 463.424 89.7256L472.35 80.2744C469.868 77.9301 467.384 75.968 464.979 74.5537C462.701 73.2136 459.884 72 456.887 72V85ZM541.913 134C541.913 138.285 538.448 141.625 534.413 141.625V154.625C545.628 154.625 554.913 145.465 554.913 134H541.913ZM534.413 141.625C530.253 141.625 526.913 138.285 526.913 134.125H513.913C513.913 145.465 523.073 154.625 534.413 154.625V141.625ZM526.913 134.125V92.375H513.913V134.125H526.913ZM526.913 92.375C526.913 88.4525 530.264 85 534.538 85V72C523.312 72 513.913 81.0475 513.913 92.375H526.913ZM534.538 85C538.461 85 541.913 88.3512 541.913 92.625H554.913C554.913 81.3988 545.866 72 534.538 72V85ZM541.913 92.625V134H554.913V92.625H541.913ZM526.288 61C526.288 56.6257 529.967 52.875 534.538 52.875V39.875C522.859 39.875 513.288 49.3743 513.288 61H526.288ZM534.538 52.875C538.966 52.875 542.663 56.4815 542.663 61.25H555.663C555.663 49.5184 546.36 39.875 534.538 39.875V52.875ZM542.663 61.25C542.663 65.6964 539.037 69.375 534.538 69.375V82.375C546.289 82.375 555.663 72.8036 555.663 61.25H542.663ZM534.538 69.375C530.074 69.375 526.288 65.6066 526.288 61H513.288C513.288 72.6434 522.752 82.375 534.538 82.375V69.375ZM580.68 85L576.217 89.7256L580.047 93.3435L584.38 90.3443L580.68 85ZM584.305 82.5L581.161 76.8109L580.619 77.1103L580.143 77.5065L584.305 82.5ZM584.38 90.3443C585.13 89.825 585.753 89.4192 586.426 88.9708C587.006 88.5837 587.786 88.06 588.466 87.4934L580.143 77.5065C580.144 77.5065 580.125 77.5223 580.08 77.5561C580.036 77.5896 579.975 77.6343 579.892 77.6928C579.721 77.8136 579.506 77.9599 579.215 78.1542C578.669 78.5183 577.855 79.05 576.98 79.6557L584.38 90.3443ZM587.449 88.1891C591.36 86.0275 595.538 84.875 599.555 84.875V71.875C593.072 71.875 586.749 73.7225 581.161 76.8109L587.449 88.1891ZM599.555 84.875C611.225 84.875 619.18 92.9437 619.18 102H632.18C632.18 84.5563 617.134 71.875 599.555 71.875V84.875ZM619.18 102V134.125H632.18V102H619.18ZM619.18 134.125C619.18 138.437 615.689 141.75 611.93 141.75V154.75C623.17 154.75 632.18 145.313 632.18 134.125H619.18ZM611.93 141.75C607.457 141.75 604.055 138.225 604.055 134.25H591.055C591.055 145.775 600.653 154.75 611.93 154.75V141.75ZM604.055 134.25V108.25H591.055V134.25H604.055ZM604.055 108.25C604.055 100.816 598.299 94.75 590.805 94.75V107.75C590.868 107.75 590.894 107.761 590.898 107.763C590.906 107.766 590.917 107.772 590.932 107.788C590.947 107.803 590.973 107.835 590.998 107.897C591.022 107.957 591.055 108.069 591.055 108.25H604.055ZM590.805 94.75C583.567 94.75 577.18 100.437 577.18 108.25H590.18C590.18 108.141 590.2 108.082 590.213 108.051C590.229 108.015 590.255 107.973 590.3 107.93C590.392 107.841 590.559 107.75 590.805 107.75V94.75ZM577.18 108.25V134.125H590.18V108.25H577.18ZM577.18 134.125C577.18 138.285 573.84 141.625 569.68 141.625V154.625C581.02 154.625 590.18 145.465 590.18 134.125H577.18ZM569.68 141.625C565.759 141.625 562.43 138.4 562.43 134.125H549.43C549.43 145.35 558.351 154.625 569.68 154.625V141.625ZM562.43 134.125V92.375H549.43V134.125H562.43ZM562.43 92.375C562.43 88.263 565.721 85 569.68 85V72C558.388 72 549.43 81.237 549.43 92.375H562.43ZM569.68 85C569.307 85 569.74 84.9114 571.181 85.7588C572.495 86.532 574.199 87.8199 576.217 89.7256L585.143 80.2744C582.661 77.9301 580.177 75.968 577.772 74.5537C575.494 73.2136 572.677 72 569.68 72V85ZM680.081 84L675.941 89.0112L679.921 92.2988L684.024 89.1672L680.081 84ZM680.081 142.125L684.175 137.076L679.935 133.638L675.816 137.22L680.081 142.125ZM684.024 89.1672C686.16 87.537 688.012 86.3856 689.479 85.6697C691.076 84.8902 691.714 84.875 691.581 84.875V71.875C688.823 71.875 686.086 72.8598 683.777 73.9866C681.338 75.1769 678.752 76.838 676.138 78.8328L684.024 89.1672ZM691.581 84.875C695.655 84.875 698.831 88.0034 698.831 92.125H711.831C711.831 80.7465 702.757 71.875 691.581 71.875V84.875ZM698.831 92.125V134.125H711.831V92.125H698.831ZM698.831 134.125C698.831 138.236 695.416 141.625 691.456 141.625V154.625C702.746 154.625 711.831 145.264 711.831 134.125H698.831ZM691.456 141.625C691.746 141.625 691.2 141.659 689.573 140.793C688.111 140.015 686.275 138.779 684.175 137.076L675.987 147.174C678.512 149.221 681.051 150.985 683.465 152.269C685.712 153.466 688.541 154.625 691.456 154.625V141.625ZM675.816 137.22C673.044 139.63 671.764 140.419 670.634 140.831C669.469 141.257 667.861 141.5 663.956 141.5V154.5C668.052 154.5 671.631 154.306 675.09 153.044C678.586 151.768 681.368 149.62 684.346 147.03L675.816 137.22ZM663.956 141.5C649.971 141.5 638.206 129.718 638.206 114H625.206C625.206 136.282 642.191 154.5 663.956 154.5V141.5ZM638.206 114C638.206 97.2875 650.449 84.75 664.456 84.75V71.75C642.213 71.75 625.206 91.2125 625.206 114H638.206ZM664.456 84.75C667.705 84.75 669.269 84.9974 670.509 85.45C671.773 85.911 673.247 86.7854 675.941 89.0112L684.221 78.9888C681.165 76.4646 678.327 74.4639 674.965 73.2375C671.581 72.0026 668.207 71.75 664.456 71.75V84.75ZM668.831 96.25C658.606 96.25 652.956 105.162 652.956 114.125H665.956C665.956 112.044 666.563 110.737 667.103 110.08C667.576 109.504 668.105 109.25 668.831 109.25V96.25ZM652.956 114.125C652.956 122.935 659.494 131.125 668.831 131.125V118.125C667.918 118.125 665.956 117.065 665.956 114.125H652.956ZM668.831 131.125C678.603 131.125 684.831 122.6 684.831 113.75H671.831C671.831 115.362 671.292 116.531 670.698 117.212C670.131 117.862 669.496 118.125 668.831 118.125V131.125ZM684.831 113.75C684.831 104.77 678.957 96.25 668.831 96.25V109.25C669.732 109.25 670.307 109.566 670.753 110.086C671.26 110.679 671.831 111.855 671.831 113.75H684.831Z" fill="white"/>
<mask id="path-3-outside-1_540_20" maskUnits="userSpaceOnUse" x="57" y="38" width="656" height="147" fill="black">
<rect fill="white" x="57" y="38" width="656" height="147"/>
<path d="M86.125 81.75H76.375C69.5 81.75 64 76 64 69.125C64 62.375 69.625 56.875 76.375 56.875H125.25C132.125 56.875 137.75 62.625 137.75 69.75C137.75 76.5 132.125 82 125.25 82H114.875V133.875C114.875 141.75 108.375 148.125 100.5 148.125C92.625 148.125 86.125 141.625 86.125 133.625V81.75ZM168.655 163.875C168.655 171.625 162.28 177.75 154.53 177.75C146.905 177.75 140.905 171.625 140.905 164V92.625C140.905 85 146.905 78.625 154.655 78.625C162.28 78.625 168.655 85 168.655 92.75V163.875ZM139.905 60.25C139.905 52.125 146.405 45.625 154.405 45.625C162.405 45.625 169.03 51.875 169.03 59.375C169.03 68.5 162.405 75.875 154.405 75.875C146.405 75.875 139.905 68.875 139.905 60.25ZM203.925 119.875C206.675 122.75 208.05 123.875 210.8 124.75C213.05 125.375 215.55 125.625 218.425 125.625C222.05 125.625 225.3 125.25 230.175 123.875C233.3 123.125 235.55 122.625 237.175 122.625C242.675 122.625 247.425 127.125 247.425 132.25C247.425 135.375 245.925 138.5 243.675 140.5C238.675 145 227.3 148.125 215.8 148.125C191.3 148.125 174.675 133.875 174.675 113.25C174.675 93.625 190.8 78.625 211.8 78.625C230.8 78.625 247.925 93.5 247.925 110.125C247.925 117.125 244.675 119.875 236.55 119.875H203.925ZM212.05 99C207.925 99 205.425 101.5 204.175 106.375H219.175C218.55 101.625 216.05 99 212.05 99ZM290.434 98.875C285.309 97.625 284.434 97.5 283.059 97.5C281.434 97.5 280.059 98.375 280.059 99.25C280.059 100.625 281.434 101.5 285.059 102.5C288.809 103.625 293.184 105.125 295.309 105.75C305.809 109.375 312.184 116.875 312.184 125.5C312.184 138.625 299.559 148.375 282.434 148.375C264.684 148.375 251.309 141.625 251.309 132.5C251.309 126.875 256.059 122.375 262.184 122.375C265.309 122.375 266.934 122.75 273.059 125C277.309 126.625 279.434 127.125 281.684 127.125C284.059 127.125 285.184 126.625 285.184 125.25C285.184 123.75 283.559 122.75 279.059 121.75C274.434 120.375 269.559 119 266.934 118.125C258.559 115.125 253.559 108.75 253.559 100.75C253.559 87.25 265.809 78.25 284.434 78.25C299.309 78.25 310.434 83.875 310.434 91.375C310.434 96.75 306.184 100.875 300.184 100.875C298.809 100.875 297.309 100.625 294.059 99.875L290.434 98.875ZM323.907 102.375H322.907C316.032 102.25 310.532 96.875 310.532 90.375C310.532 84.25 316.032 79.25 322.657 79.25H323.907V73.5C323.907 65.625 330.282 59.375 338.032 59.375C345.657 59.375 351.907 65.75 351.907 73.625V79.25H353.532C360.032 79.25 365.282 84.375 365.282 90.75C365.282 97.125 360.157 102.25 353.532 102.5L351.782 102.625V133.875C351.782 141.75 345.532 148.125 337.907 148.125C330.157 148.125 323.907 141.75 323.907 133.875V102.375ZM393.378 119.875C396.128 122.75 397.503 123.875 400.253 124.75C402.503 125.375 405.003 125.625 407.878 125.625C411.503 125.625 414.753 125.25 419.628 123.875C422.753 123.125 425.003 122.625 426.628 122.625C432.128 122.625 436.878 127.125 436.878 132.25C436.878 135.375 435.378 138.5 433.128 140.5C428.128 145 416.753 148.125 405.253 148.125C380.753 148.125 364.128 133.875 364.128 113.25C364.128 93.625 380.253 78.625 401.253 78.625C420.253 78.625 437.378 93.5 437.378 110.125C437.378 117.125 434.128 119.875 426.003 119.875H393.378ZM401.503 99C397.378 99 394.878 101.5 393.628 106.375H408.628C408.003 101.625 405.503 99 401.503 99ZM467.887 85C469.512 83.875 470.762 83.125 471.512 82.5C476.262 79.875 481.512 78.375 486.762 78.375C501.387 78.375 512.887 88.75 512.887 102V134.125C512.887 141.875 506.637 148.25 499.137 148.25C491.262 148.25 484.762 142 484.762 134.25V108.25C484.762 104.25 481.762 101.25 478.012 101.25C474.137 101.25 470.887 104.25 470.887 108.25V134.125C470.887 141.875 464.637 148.125 456.887 148.125C449.262 148.125 443.137 141.875 443.137 134.125V92.375C443.137 84.75 449.262 78.5 456.887 78.5C459.512 78.5 463.387 80.75 467.887 85ZM548.413 134C548.413 141.875 542.038 148.125 534.413 148.125C526.663 148.125 520.413 141.875 520.413 134.125V92.375C520.413 84.75 526.788 78.5 534.538 78.5C542.163 78.5 548.413 84.875 548.413 92.625V134ZM519.788 61C519.788 53 526.413 46.375 534.538 46.375C542.663 46.375 549.163 53 549.163 61.25C549.163 69.25 542.663 75.875 534.538 75.875C526.413 75.875 519.788 69.125 519.788 61ZM580.68 85C582.305 83.875 583.555 83.125 584.305 82.5C589.055 79.875 594.305 78.375 599.555 78.375C614.18 78.375 625.68 88.75 625.68 102V134.125C625.68 141.875 619.43 148.25 611.93 148.25C604.055 148.25 597.555 142 597.555 134.25V108.25C597.555 104.25 594.555 101.25 590.805 101.25C586.93 101.25 583.68 104.25 583.68 108.25V134.125C583.68 141.875 577.43 148.125 569.68 148.125C562.055 148.125 555.93 141.875 555.93 134.125V92.375C555.93 84.75 562.055 78.5 569.68 78.5C572.305 78.5 576.18 80.75 580.68 85ZM680.081 84C684.831 80.375 688.956 78.375 691.581 78.375C699.206 78.375 705.331 84.375 705.331 92.125V134.125C705.331 141.75 699.081 148.125 691.456 148.125C688.831 148.125 684.706 145.875 680.081 142.125C674.331 147.125 671.956 148 663.956 148C646.081 148 631.706 133 631.706 114C631.706 94.25 646.331 78.25 664.456 78.25C671.456 78.25 674.331 79.25 680.081 84ZM668.831 102.75C663.331 102.75 659.456 107.5 659.456 114.125C659.456 120 663.706 124.625 668.831 124.625C674.206 124.625 678.331 119.875 678.331 113.75C678.331 107.375 674.456 102.75 668.831 102.75Z"/>
</mask>
<path d="M86.125 81.75H93.125V74.75H86.125V81.75ZM114.875 82V75H107.875V82H114.875ZM86.125 74.75H76.375V88.75H86.125V74.75ZM76.375 74.75C73.5468 74.75 71 72.3173 71 69.125H57C57 79.6827 65.4532 88.75 76.375 88.75V74.75ZM71 69.125C71 66.333 73.3984 63.875 76.375 63.875V49.875C65.8516 49.875 57 58.417 57 69.125H71ZM76.375 63.875H125.25V49.875H76.375V63.875ZM125.25 63.875C128.081 63.875 130.75 66.3102 130.75 69.75H144.75C144.75 58.9398 136.169 49.875 125.25 49.875V63.875ZM130.75 69.75C130.75 72.4968 128.398 75 125.25 75V89C135.852 89 144.75 80.5032 144.75 69.75H130.75ZM125.25 75H114.875V89H125.25V75ZM107.875 82V133.875H121.875V82H107.875ZM107.875 133.875C107.875 137.805 104.589 141.125 100.5 141.125V155.125C112.161 155.125 121.875 145.695 121.875 133.875H107.875ZM100.5 141.125C96.5303 141.125 93.125 137.798 93.125 133.625H79.125C79.125 145.452 88.7197 155.125 100.5 155.125V141.125ZM93.125 133.625V81.75H79.125V133.625H93.125ZM161.655 163.875C161.655 167.597 158.578 170.75 154.53 170.75V184.75C165.982 184.75 175.655 175.653 175.655 163.875H161.655ZM154.53 170.75C150.855 170.75 147.905 167.843 147.905 164H133.905C133.905 175.407 142.956 184.75 154.53 184.75V170.75ZM147.905 164V92.625H133.905V164H147.905ZM147.905 92.625C147.905 88.6588 150.975 85.625 154.655 85.625V71.625C142.835 71.625 133.905 81.3412 133.905 92.625H147.905ZM154.655 85.625C158.374 85.625 161.655 88.8256 161.655 92.75H175.655C175.655 81.1744 166.187 71.625 154.655 71.625V85.625ZM161.655 92.75V163.875H175.655V92.75H161.655ZM146.905 60.25C146.905 55.9518 150.31 52.625 154.405 52.625V38.625C142.5 38.625 132.905 48.2982 132.905 60.25H146.905ZM154.405 52.625C158.945 52.625 162.03 56.1347 162.03 59.375H176.03C176.03 47.6153 165.865 38.625 154.405 38.625V52.625ZM162.03 59.375C162.03 65.4228 157.795 68.875 154.405 68.875V82.875C167.016 82.875 176.03 71.5772 176.03 59.375H162.03ZM154.405 68.875C150.753 68.875 146.905 65.5095 146.905 60.25H132.905C132.905 72.2405 142.057 82.875 154.405 82.875V68.875ZM203.925 119.875V112.875H187.542L198.866 124.714L203.925 119.875ZM210.8 124.75L208.677 131.42L208.801 131.46L208.926 131.495L210.8 124.75ZM230.175 123.875L228.541 117.068L228.407 117.1L228.275 117.138L230.175 123.875ZM243.675 140.5L239.024 135.268L239.008 135.282L238.992 135.297L243.675 140.5ZM204.175 106.375L197.394 104.636L195.153 113.375H204.175V106.375ZM219.175 106.375V113.375H227.156L226.115 105.462L219.175 106.375ZM198.866 124.714C201.889 127.873 204.251 130.012 208.677 131.42L212.922 118.08C212.138 117.83 211.807 117.64 211.48 117.401C210.998 117.051 210.338 116.453 208.983 115.036L198.866 124.714ZM208.926 131.495C211.991 132.346 215.172 132.625 218.425 132.625V118.625C215.928 118.625 214.109 118.404 212.673 118.005L208.926 131.495ZM218.425 132.625C222.723 132.625 226.612 132.153 232.075 130.612L228.275 117.138C223.988 118.347 221.377 118.625 218.425 118.625V132.625ZM231.808 130.682C235.215 129.864 236.56 129.625 237.175 129.625V115.625C234.54 115.625 231.384 116.386 228.541 117.068L231.808 130.682ZM237.175 129.625C238.013 129.625 238.89 129.978 239.563 130.612C240.244 131.252 240.425 131.888 240.425 132.25H254.425C254.425 122.869 246.138 115.625 237.175 115.625V129.625ZM240.425 132.25C240.425 133.271 239.86 134.525 239.024 135.268L248.325 145.732C251.99 142.475 254.425 137.479 254.425 132.25H240.425ZM238.992 135.297C237.659 136.497 234.766 138.032 230.326 139.249C226.048 140.42 220.952 141.125 215.8 141.125V155.125C222.147 155.125 228.489 154.267 234.024 152.751C239.396 151.28 244.691 149.003 248.358 145.703L238.992 135.297ZM215.8 141.125C204.875 141.125 196.303 137.954 190.585 133.09C184.955 128.301 181.675 121.543 181.675 113.25H167.675C167.675 125.582 172.707 136.262 181.514 143.754C190.234 151.171 202.225 155.125 215.8 155.125V141.125ZM181.675 113.25C181.675 97.9476 194.193 85.625 211.8 85.625V71.625C187.407 71.625 167.675 89.3024 167.675 113.25H181.675ZM211.8 85.625C219.504 85.625 226.926 88.6607 232.39 93.4194C237.878 98.199 240.925 104.268 240.925 110.125H254.925C254.925 99.357 249.409 89.676 241.585 82.8619C233.736 76.0267 223.096 71.625 211.8 71.625V85.625ZM240.925 110.125C240.925 112.683 240.329 112.652 240.736 112.304C240.825 112.228 240.705 112.381 240.033 112.551C239.332 112.729 238.226 112.875 236.55 112.875V126.875C241.087 126.875 246.056 126.174 249.832 122.946C253.895 119.473 254.925 114.567 254.925 110.125H240.925ZM236.55 112.875H203.925V126.875H236.55V112.875ZM212.05 92C208.438 92 204.975 93.1552 202.208 95.789C199.615 98.2573 198.202 101.485 197.394 104.636L210.955 108.114C211.168 107.286 211.39 106.73 211.573 106.376C211.752 106.029 211.868 105.923 211.86 105.93C211.837 105.952 211.768 106.001 211.698 106.027C211.643 106.047 211.73 106 212.05 106V92ZM204.175 113.375H219.175V99.375H204.175V113.375ZM226.115 105.462C225.677 102.13 224.477 98.707 221.921 96.052C219.233 93.2588 215.7 92 212.05 92V106C212.28 106 212.295 106.036 212.179 105.99C212.05 105.939 211.92 105.849 211.835 105.761C211.685 105.605 212.048 105.87 212.235 107.288L226.115 105.462ZM290.434 98.875L292.295 92.1271L292.194 92.0992L292.092 92.0744L290.434 98.875ZM285.059 102.5L287.07 95.7952L286.995 95.7728L286.92 95.7521L285.059 102.5ZM295.309 105.75L297.593 99.1332L297.439 99.0802L297.284 99.0344L295.309 105.75ZM273.059 125L275.559 118.462L275.516 118.445L275.472 118.429L273.059 125ZM279.059 121.75L277.064 128.46L277.3 128.53L277.54 128.583L279.059 121.75ZM266.934 118.125L264.573 124.715L264.646 124.741L264.72 124.766L266.934 118.125ZM294.059 99.875L292.197 106.623L292.34 106.662L292.485 106.696L294.059 99.875ZM292.092 92.0744C287.112 90.8596 285.417 90.5 283.059 90.5V104.5C283.347 104.5 283.49 104.497 284.088 104.606C284.884 104.751 286.188 105.045 288.775 105.676L292.092 92.0744ZM283.059 90.5C281.062 90.5 279.053 91.0214 277.348 92.0444C276.02 92.8411 273.059 95.1245 273.059 99.25H287.059C287.059 100.915 286.404 102.137 285.892 102.816C285.385 103.49 284.86 103.863 284.551 104.049C283.939 104.416 283.43 104.5 283.059 104.5V90.5ZM273.059 99.25C273.059 103.001 275.264 105.513 277.396 106.893C279.158 108.033 281.307 108.726 283.197 109.248L286.92 95.7521C286.139 95.5366 285.605 95.3616 285.247 95.2251C284.871 95.0812 284.846 95.038 285.002 95.1386C285.163 95.2426 285.721 95.6326 286.232 96.434C286.802 97.3267 287.059 98.3327 287.059 99.25H273.059ZM283.047 109.205C284.837 109.742 286.798 110.375 288.631 110.97C290.397 111.544 292.15 112.118 293.333 112.466L297.284 99.0344C296.342 98.7574 294.845 98.2686 292.955 97.6548C291.132 97.0627 289.031 96.3834 287.07 95.7952L283.047 109.205ZM293.024 112.367C301.703 115.363 305.184 120.797 305.184 125.5H319.184C319.184 112.953 309.914 103.387 297.593 99.1332L293.024 112.367ZM305.184 125.5C305.184 133.168 297.504 141.375 282.434 141.375V155.375C301.613 155.375 319.184 144.082 319.184 125.5H305.184ZM282.434 141.375C274.341 141.375 267.717 139.821 263.387 137.62C258.844 135.309 258.309 133.211 258.309 132.5H244.309C244.309 140.914 250.461 146.753 257.042 150.099C263.838 153.554 272.776 155.375 282.434 155.375V141.375ZM258.309 132.5C258.309 131.17 259.481 129.375 262.184 129.375V115.375C252.636 115.375 244.309 122.58 244.309 132.5H258.309ZM262.184 129.375C263.355 129.375 263.97 129.436 264.862 129.65C265.978 129.918 267.562 130.438 270.645 131.571L275.472 118.429C269.192 116.122 266.602 115.375 262.184 115.375V129.375ZM270.559 131.538C275.025 133.246 278.123 134.125 281.684 134.125V120.125C280.745 120.125 279.592 120.004 275.559 118.462L270.559 131.538ZM281.684 134.125C283.052 134.125 285.369 134.036 287.522 132.93C288.763 132.293 290.06 131.263 290.99 129.696C291.909 128.147 292.184 126.558 292.184 125.25H278.184C278.184 124.629 278.317 123.618 278.951 122.55C279.596 121.463 280.463 120.817 281.127 120.476C281.721 120.171 282.146 120.11 282.156 120.109C282.19 120.103 282.058 120.125 281.684 120.125V134.125ZM292.184 125.25C292.184 121.158 289.6 118.581 287.324 117.259C285.363 116.121 282.931 115.44 280.577 114.917L277.54 128.583C278.528 128.803 279.235 128.996 279.73 129.158C280.247 129.328 280.378 129.415 280.294 129.366C280.215 129.32 279.655 128.987 279.112 128.206C278.491 127.314 278.184 126.254 278.184 125.25H292.184ZM281.053 115.04C276.227 113.605 271.629 112.312 269.147 111.484L264.72 124.766C267.488 125.688 272.64 127.145 277.064 128.46L281.053 115.04ZM269.294 111.535C263.202 109.353 260.559 105.296 260.559 100.75H246.559C246.559 112.204 253.915 120.897 264.573 124.715L269.294 111.535ZM260.559 100.75C260.559 96.3731 262.439 92.7936 266.141 90.0901C270.018 87.2581 276.161 85.25 284.434 85.25V71.25C274.081 71.25 264.787 73.7419 257.883 78.7849C250.803 83.9564 246.559 91.6269 246.559 100.75H260.559ZM284.434 85.25C291.092 85.25 296.443 86.5243 299.856 88.2483C301.552 89.1049 302.524 89.9465 303.013 90.5535C303.453 91.0984 303.434 91.3459 303.434 91.375H317.434C317.434 83.7398 311.799 78.5961 306.167 75.7517C300.3 72.7882 292.65 71.25 284.434 71.25V85.25ZM303.434 91.375C303.434 92.1457 303.159 92.6697 302.765 93.0394C302.358 93.422 301.555 93.875 300.184 93.875V107.875C309.633 107.875 317.434 101.02 317.434 91.375H303.434ZM300.184 93.875C299.7 93.875 298.912 93.8111 295.633 93.0543L292.485 106.696C295.705 107.439 297.917 107.875 300.184 107.875V93.875ZM295.92 93.1271L292.295 92.1271L288.572 105.623L292.197 106.623L295.92 93.1271ZM323.907 102.375H330.907V95.375H323.907V102.375ZM322.907 102.375L322.78 109.374L322.844 109.375H322.907V102.375ZM323.907 79.25V86.25H330.907V79.25H323.907ZM351.907 79.25H344.907V86.25H351.907V79.25ZM353.532 102.5L353.268 95.505L353.151 95.5094L353.034 95.5178L353.532 102.5ZM351.782 102.625L351.284 95.6428L344.782 96.1072V102.625H351.782ZM323.907 95.375H322.907V109.375H323.907V95.375ZM323.034 95.3762C319.667 95.3149 317.532 92.7578 317.532 90.375H303.532C303.532 100.992 312.397 109.185 322.78 109.374L323.034 95.3762ZM317.532 90.375C317.532 88.689 319.299 86.25 322.657 86.25V72.25C312.765 72.25 303.532 79.811 303.532 90.375H317.532ZM322.657 86.25H323.907V72.25H322.657V86.25ZM330.907 79.25V73.5H316.907V79.25H330.907ZM330.907 73.5C330.907 69.5313 334.108 66.375 338.032 66.375V52.375C326.457 52.375 316.907 61.7187 316.907 73.5H330.907ZM338.032 66.375C341.63 66.375 344.907 69.4531 344.907 73.625H358.907C358.907 62.0469 349.684 52.375 338.032 52.375V66.375ZM344.907 73.625V79.25H358.907V73.625H344.907ZM351.907 86.25H353.532V72.25H351.907V86.25ZM353.532 86.25C356.314 86.25 358.282 88.3874 358.282 90.75H372.282C372.282 80.3626 363.75 72.25 353.532 72.25V86.25ZM358.282 90.75C358.282 93.1198 356.379 95.3876 353.268 95.505L353.796 109.495C363.935 109.112 372.282 101.13 372.282 90.75H358.282ZM353.034 95.5178L351.284 95.6428L352.281 109.607L354.031 109.482L353.034 95.5178ZM344.782 102.625V133.875H358.782V102.625H344.782ZM344.782 133.875C344.782 138.047 341.505 141.125 337.907 141.125V155.125C349.559 155.125 358.782 145.453 358.782 133.875H344.782ZM337.907 141.125C334.144 141.125 330.907 138.006 330.907 133.875H316.907C316.907 145.494 326.171 155.125 337.907 155.125V141.125ZM330.907 133.875V102.375H316.907V133.875H330.907ZM393.378 119.875V112.875H376.996L388.319 124.714L393.378 119.875ZM400.253 124.75L398.131 131.42L398.254 131.46L398.379 131.495L400.253 124.75ZM419.628 123.875L417.994 117.068L417.86 117.1L417.728 117.138L419.628 123.875ZM433.128 140.5L428.477 135.268L428.461 135.282L428.445 135.297L433.128 140.5ZM393.628 106.375L386.847 104.636L384.607 113.375H393.628V106.375ZM408.628 106.375V113.375H416.609L415.568 105.462L408.628 106.375ZM388.319 124.714C391.342 127.873 393.704 130.012 398.131 131.42L402.375 118.08C401.591 117.83 401.26 117.64 400.933 117.401C400.451 117.051 399.791 116.453 398.436 115.036L388.319 124.714ZM398.379 131.495C401.444 132.346 404.625 132.625 407.878 132.625V118.625C405.381 118.625 403.562 118.404 402.126 118.005L398.379 131.495ZM407.878 132.625C412.176 132.625 416.065 132.153 421.528 130.612L417.728 117.138C413.441 118.347 410.83 118.625 407.878 118.625V132.625ZM421.262 130.682C424.668 129.864 426.013 129.625 426.628 129.625V115.625C423.993 115.625 420.837 116.386 417.994 117.068L421.262 130.682ZM426.628 129.625C427.466 129.625 428.344 129.978 429.017 130.612C429.697 131.252 429.878 131.888 429.878 132.25H443.878C443.878 122.869 435.592 115.625 426.628 115.625V129.625ZM429.878 132.25C429.878 133.271 429.313 134.525 428.477 135.268L437.778 145.732C441.443 142.475 443.878 137.479 443.878 132.25H429.878ZM428.445 135.297C427.112 136.497 424.219 138.032 419.779 139.249C415.501 140.42 410.406 141.125 405.253 141.125V155.125C411.6 155.125 417.942 154.267 423.477 152.751C428.849 151.28 434.144 149.003 437.811 145.703L428.445 135.297ZM405.253 141.125C394.328 141.125 385.756 137.954 380.038 133.09C374.409 128.301 371.128 121.543 371.128 113.25H357.128C357.128 125.582 362.16 136.262 370.967 143.754C379.687 151.171 391.678 155.125 405.253 155.125V141.125ZM371.128 113.25C371.128 97.9476 383.646 85.625 401.253 85.625V71.625C376.86 71.625 357.128 89.3024 357.128 113.25H371.128ZM401.253 85.625C408.957 85.625 416.379 88.6607 421.843 93.4194C427.331 98.199 430.378 104.268 430.378 110.125H444.378C444.378 99.357 438.862 89.676 431.038 82.8619C423.189 76.0267 412.549 71.625 401.253 71.625V85.625ZM430.378 110.125C430.378 112.683 429.782 112.652 430.189 112.304C430.278 112.228 430.158 112.381 429.487 112.551C428.785 112.729 427.679 112.875 426.003 112.875V126.875C430.54 126.875 435.509 126.174 439.285 122.946C443.349 119.473 444.378 114.567 444.378 110.125H430.378ZM426.003 112.875H393.378V126.875H426.003V112.875ZM401.503 92C397.891 92 394.428 93.1552 391.661 95.789C389.068 98.2573 387.655 101.485 386.847 104.636L400.409 108.114C400.621 107.286 400.844 106.73 401.027 106.376C401.205 106.029 401.321 105.923 401.313 105.93C401.29 105.952 401.221 106.001 401.151 106.027C401.096 106.047 401.183 106 401.503 106V92ZM393.628 113.375H408.628V99.375H393.628V113.375ZM415.568 105.462C415.13 102.13 413.93 98.707 411.374 96.052C408.686 93.2588 405.153 92 401.503 92V106C401.733 106 401.748 106.036 401.632 105.99C401.503 105.939 401.373 105.849 401.288 105.761C401.138 105.605 401.501 105.87 401.688 107.288L415.568 105.462ZM467.887 85L463.08 90.0891L467.206 93.9853L471.871 90.7553L467.887 85ZM471.512 82.5L468.126 76.3733L467.543 76.6957L467.03 77.1224L471.512 82.5ZM471.871 90.7553C472.616 90.2394 473.233 89.8385 473.91 89.3868C474.489 89.0012 475.29 88.4636 475.993 87.8775L467.03 77.1224C467.036 77.1179 466.978 77.1656 466.81 77.2848C466.645 77.4015 466.435 77.5446 466.144 77.7382C465.603 78.099 464.782 78.6356 463.902 79.2446L471.871 90.7553ZM474.898 88.6267C478.744 86.5007 482.84 85.375 486.762 85.375V71.375C480.184 71.375 473.779 73.2493 468.126 76.3733L474.898 88.6267ZM486.762 85.375C498.205 85.375 505.887 93.2663 505.887 102H519.887C519.887 84.2337 504.569 71.375 486.762 71.375V85.375ZM505.887 102V134.125H519.887V102H505.887ZM505.887 134.125C505.887 138.173 502.609 141.25 499.137 141.25V155.25C510.665 155.25 519.887 145.577 519.887 134.125H505.887ZM499.137 141.25C494.926 141.25 491.762 137.935 491.762 134.25H477.762C477.762 146.065 487.598 155.25 499.137 155.25V141.25ZM491.762 134.25V108.25H477.762V134.25H491.762ZM491.762 108.25C491.762 100.552 485.794 94.25 478.012 94.25V108.25C478.013 108.25 478.001 108.25 477.981 108.246C477.96 108.242 477.936 108.234 477.91 108.223C477.856 108.2 477.812 108.168 477.781 108.137C477.75 108.105 477.741 108.082 477.741 108.084C477.742 108.086 477.747 108.098 477.751 108.122C477.756 108.147 477.762 108.188 477.762 108.25H491.762ZM478.012 94.25C470.516 94.25 463.887 100.143 463.887 108.25H477.887C477.887 108.226 477.889 108.218 477.888 108.223C477.887 108.227 477.884 108.237 477.879 108.249C477.868 108.275 477.855 108.288 477.854 108.29C477.854 108.29 477.864 108.28 477.889 108.27C477.911 108.261 477.95 108.25 478.012 108.25V94.25ZM463.887 108.25V134.125H477.887V108.25H463.887ZM463.887 134.125C463.887 138.009 460.771 141.125 456.887 141.125V155.125C468.503 155.125 477.887 145.741 477.887 134.125H463.887ZM456.887 141.125C453.25 141.125 450.137 138.133 450.137 134.125H436.137C436.137 145.617 445.273 155.125 456.887 155.125V141.125ZM450.137 134.125V92.375H436.137V134.125H450.137ZM450.137 92.375C450.137 88.5332 453.21 85.5 456.887 85.5V71.5C445.313 71.5 436.137 80.9668 436.137 92.375H450.137ZM456.887 85.5C456.385 85.5 456.726 85.3613 458.134 86.1898C459.407 86.9383 461.08 88.2003 463.08 90.0891L472.693 79.9109C470.193 77.5497 467.679 75.5617 465.233 74.1227C462.922 72.7637 460.014 71.5 456.887 71.5V85.5ZM541.413 134C541.413 138.009 538.172 141.125 534.413 141.125V155.125C545.904 155.125 555.413 145.741 555.413 134H541.413ZM534.413 141.125C530.529 141.125 527.413 138.009 527.413 134.125H513.413C513.413 145.741 522.797 155.125 534.413 155.125V141.125ZM527.413 134.125V92.375H513.413V134.125H527.413ZM527.413 92.375C527.413 88.7373 530.532 85.5 534.538 85.5V71.5C523.044 71.5 513.413 80.7627 513.413 92.375H527.413ZM534.538 85.5C538.176 85.5 541.413 88.6186 541.413 92.625H555.413C555.413 81.1314 546.15 71.5 534.538 71.5V85.5ZM541.413 92.625V134H555.413V92.625H541.413ZM526.788 61C526.788 56.9046 530.24 53.375 534.538 53.375V39.375C522.586 39.375 512.788 49.0954 512.788 61H526.788ZM534.538 53.375C538.681 53.375 542.163 56.7494 542.163 61.25H556.163C556.163 49.2506 546.645 39.375 534.538 39.375V53.375ZM542.163 61.25C542.163 65.423 538.758 68.875 534.538 68.875V82.875C546.568 82.875 556.163 73.077 556.163 61.25H542.163ZM534.538 68.875C530.356 68.875 526.788 65.336 526.788 61H512.788C512.788 72.914 522.471 82.875 534.538 82.875V68.875ZM580.68 85L575.873 90.0891L579.999 93.9853L584.664 90.7553L580.68 85ZM584.305 82.5L580.919 76.3733L580.335 76.6957L579.823 77.1224L584.305 82.5ZM584.664 90.7553C585.409 90.2394 586.026 89.8385 586.703 89.3868C587.282 89.0012 588.083 88.4636 588.786 87.8775L579.823 77.1224C579.829 77.1179 579.771 77.1656 579.603 77.2848C579.438 77.4015 579.228 77.5446 578.937 77.7382C578.396 78.099 577.575 78.6356 576.695 79.2446L584.664 90.7553ZM587.69 88.6267C591.537 86.5007 595.633 85.375 599.555 85.375V71.375C592.977 71.375 586.572 73.2493 580.919 76.3733L587.69 88.6267ZM599.555 85.375C610.998 85.375 618.68 93.2663 618.68 102H632.68C632.68 84.2337 617.362 71.375 599.555 71.375V85.375ZM618.68 102V134.125H632.68V102H618.68ZM618.68 134.125C618.68 138.173 615.402 141.25 611.93 141.25V155.25C623.458 155.25 632.68 145.577 632.68 134.125H618.68ZM611.93 141.25C607.719 141.25 604.555 137.935 604.555 134.25H590.555C590.555 146.065 600.391 155.25 611.93 155.25V141.25ZM604.555 134.25V108.25H590.555V134.25H604.555ZM604.555 108.25C604.555 100.552 598.587 94.25 590.805 94.25V108.25C590.806 108.25 590.794 108.25 590.774 108.246C590.753 108.242 590.729 108.234 590.703 108.223C590.649 108.2 590.605 108.168 590.574 108.137C590.543 108.105 590.534 108.082 590.534 108.084C590.535 108.086 590.54 108.098 590.544 108.122C590.549 108.147 590.555 108.188 590.555 108.25H604.555ZM590.805 94.25C583.309 94.25 576.68 100.143 576.68 108.25H590.68C590.68 108.226 590.682 108.218 590.681 108.223C590.68 108.227 590.677 108.237 590.672 108.249C590.661 108.275 590.648 108.288 590.647 108.29C590.647 108.29 590.657 108.28 590.682 108.27C590.704 108.261 590.743 108.25 590.805 108.25V94.25ZM576.68 108.25V134.125H590.68V108.25H576.68ZM576.68 134.125C576.68 138.009 573.564 141.125 569.68 141.125V155.125C581.296 155.125 590.68 145.741 590.68 134.125H576.68ZM569.68 141.125C566.043 141.125 562.93 138.133 562.93 134.125H548.93C548.93 145.617 558.066 155.125 569.68 155.125V141.125ZM562.93 134.125V92.375H548.93V134.125H562.93ZM562.93 92.375C562.93 88.5332 566.003 85.5 569.68 85.5V71.5C558.106 71.5 548.93 80.9668 548.93 92.375H562.93ZM569.68 85.5C569.178 85.5 569.519 85.3613 570.927 86.1898C572.2 86.9383 573.873 88.2003 575.873 90.0891L585.486 79.9109C582.986 77.5497 580.472 75.5617 578.026 74.1227C575.715 72.7637 572.807 71.5 569.68 71.5V85.5ZM680.081 84L675.623 89.3967L679.909 92.9371L684.328 89.5647L680.081 84ZM680.081 142.125L684.49 136.688L679.924 132.986L675.488 136.843L680.081 142.125ZM684.328 89.5647C686.445 87.9485 688.268 86.8167 689.698 86.119C691.268 85.3529 691.826 85.375 691.581 85.375V71.375C688.712 71.375 685.894 72.3971 683.558 73.5372C681.081 74.7458 678.467 76.4265 675.834 78.4353L684.328 89.5647ZM691.581 85.375C695.382 85.375 698.331 88.2826 698.331 92.125H712.331C712.331 80.4674 703.03 71.375 691.581 71.375V85.375ZM698.331 92.125V134.125H712.331V92.125H698.331ZM698.331 134.125C698.331 137.966 695.134 141.125 691.456 141.125V155.125C703.028 155.125 712.331 145.534 712.331 134.125H698.331ZM691.456 141.125C691.87 141.125 691.411 141.205 689.807 140.352C688.382 139.593 686.573 138.377 684.49 136.688L675.672 147.562C678.214 149.623 680.78 151.407 683.23 152.71C685.501 153.92 688.417 155.125 691.456 155.125V141.125ZM675.488 136.843C672.724 139.246 671.501 139.983 670.463 140.362C669.385 140.755 667.853 141 663.956 141V155C668.059 155 671.714 154.808 675.262 153.513C678.848 152.205 681.688 150.004 684.674 147.407L675.488 136.843ZM663.956 141C650.271 141 638.706 129.466 638.706 114H624.706C624.706 136.534 641.891 155 663.956 155V141ZM638.706 114C638.706 97.5211 650.766 85.25 664.456 85.25V71.25C641.896 71.25 624.706 90.9788 624.706 114H638.706ZM664.456 85.25C667.685 85.25 669.18 85.4972 670.338 85.9197C671.521 86.3513 672.942 87.1823 675.623 89.3967L684.539 78.6033C681.47 76.0676 678.579 74.0237 675.137 72.7678C671.67 71.5028 668.227 71.25 664.456 71.25V85.25ZM668.831 95.75C658.242 95.75 652.456 104.982 652.456 114.125H666.456C666.456 112.139 667.035 110.95 667.489 110.397C667.871 109.933 668.261 109.75 668.831 109.75V95.75ZM652.456 114.125C652.456 123.16 659.17 131.625 668.831 131.625V117.625C668.453 117.625 667.939 117.466 667.423 116.893C666.902 116.315 666.456 115.369 666.456 114.125H652.456ZM668.831 131.625C678.942 131.625 685.331 122.81 685.331 113.75H671.331C671.331 115.251 670.83 116.3 670.321 116.884C669.842 117.433 669.341 117.625 668.831 117.625V131.625ZM685.331 113.75C685.331 104.57 679.304 95.75 668.831 95.75V109.75C669.585 109.75 670.022 110.002 670.373 110.411C670.791 110.9 671.331 111.954 671.331 113.75H685.331Z" fill="#FF0F00" mask="url(#path-3-outside-1_540_20)"/>
<path d="M160.25 304.25H202.5C216.25 304.25 227.25 315.5 227.25 329.5C227.25 343 216 354 202.5 354H132.25C114.75 354 102.25 341 102.25 323V201C102.25 184.75 115 171.75 131 171.75C147.25 171.75 160.25 184.75 160.25 201V304.25ZM286.18 299.75C291.68 305.5 294.43 307.75 299.93 309.5C304.43 310.75 309.43 311.25 315.18 311.25C322.43 311.25 328.93 310.5 338.68 307.75C344.93 306.25 349.43 305.25 352.68 305.25C363.68 305.25 373.18 314.25 373.18 324.5C373.18 330.75 370.18 337 365.68 341C355.68 350 332.93 356.25 309.93 356.25C260.93 356.25 227.68 327.75 227.68 286.5C227.68 247.25 259.93 217.25 301.93 217.25C339.93 217.25 374.18 247 374.18 280.25C374.18 294.25 367.68 299.75 351.43 299.75H286.18ZM302.43 258C294.18 258 289.18 263 286.68 272.75H316.68C315.43 263.25 310.43 258 302.43 258ZM442.447 387.75C442.447 403.25 429.697 415.5 414.197 415.5C398.947 415.5 386.947 403.25 386.947 388V245.25C386.947 230 398.947 217.25 414.447 217.25C429.697 217.25 442.447 230 442.447 245.5V387.75ZM384.947 180.5C384.947 164.25 397.947 151.25 413.947 151.25C429.947 151.25 443.197 163.75 443.197 178.75C443.197 197 429.947 211.75 413.947 211.75C397.947 211.75 384.947 197.75 384.947 180.5ZM512.736 328.25C512.736 343.75 499.986 356.5 484.986 356.5C469.486 356.5 456.986 343.75 456.986 328.25V185C456.986 170 469.486 157.75 485.236 157.75C500.236 157.75 512.736 170.25 512.736 185.5V328.25ZM621.305 228C630.805 220.75 639.055 216.75 644.305 216.75C659.555 216.75 671.805 228.75 671.805 244.25V328.25C671.805 343.5 659.305 356.25 644.055 356.25C638.805 356.25 630.555 351.75 621.305 344.25C609.805 354.25 605.055 356 589.055 356C553.305 356 524.555 326 524.555 288C524.555 248.5 553.805 216.5 590.055 216.5C604.055 216.5 609.805 218.5 621.305 228ZM598.805 265.5C587.805 265.5 580.055 275 580.055 288.25C580.055 300 588.555 309.25 598.805 309.25C609.555 309.25 617.805 299.75 617.805 287.5C617.805 274.75 610.055 265.5 598.805 265.5Z" fill="url(#paint0_linear_540_20)"/>
<path d="M160.25 304.25H153.75V310.75H160.25V304.25ZM160.25 310.75H202.5V297.75H160.25V310.75ZM202.5 310.75C212.534 310.75 220.75 318.962 220.75 329.5H233.75C233.75 312.038 219.966 297.75 202.5 297.75V310.75ZM220.75 329.5C220.75 339.325 212.496 347.5 202.5 347.5V360.5C219.504 360.5 233.75 346.675 233.75 329.5H220.75ZM202.5 347.5H132.25V360.5H202.5V347.5ZM132.25 347.5C118.551 347.5 108.75 337.624 108.75 323H95.75C95.75 344.376 110.949 360.5 132.25 360.5V347.5ZM108.75 323V201H95.75V323H108.75ZM108.75 201C108.75 188.23 118.699 178.25 131 178.25V165.25C111.301 165.25 95.75 181.27 95.75 201H108.75ZM131 178.25C143.66 178.25 153.75 188.34 153.75 201H166.75C166.75 181.16 150.84 165.25 131 165.25V178.25ZM153.75 201V304.25H166.75V201H153.75ZM286.18 299.75V293.25H270.968L281.483 304.243L286.18 299.75ZM299.93 309.5L297.959 315.694L298.074 315.731L298.19 315.763L299.93 309.5ZM338.68 307.75L337.163 301.429L337.038 301.459L336.915 301.494L338.68 307.75ZM365.68 341L361.361 336.142L361.346 336.155L361.331 336.169L365.68 341ZM286.68 272.75L280.383 271.136L278.303 279.25H286.68V272.75ZM316.68 272.75V279.25H324.091L323.124 271.902L316.68 272.75ZM281.483 304.243C287.235 310.257 290.902 313.449 297.959 315.694L301.901 303.306C297.958 302.051 296.124 300.743 290.877 295.257L281.483 304.243ZM298.19 315.763C303.447 317.223 309.079 317.75 315.18 317.75V304.75C309.781 304.75 305.413 304.277 301.669 303.237L298.19 315.763ZM315.18 317.75C323.055 317.75 330.148 316.91 340.444 314.006L336.915 301.494C327.711 304.09 321.805 304.75 315.18 304.75V317.75ZM340.197 314.071C346.708 312.508 350.368 311.75 352.68 311.75V298.75C348.492 298.75 343.151 299.992 337.163 301.429L340.197 314.071ZM352.68 311.75C360.463 311.75 366.68 318.202 366.68 324.5H379.68C379.68 310.298 366.896 298.75 352.68 298.75V311.75ZM366.68 324.5C366.68 328.796 364.548 333.309 361.361 336.142L369.998 345.858C375.812 340.691 379.68 332.704 379.68 324.5H366.68ZM361.331 336.169C357.415 339.694 350.343 343.162 340.963 345.731C331.734 348.259 320.875 349.75 309.93 349.75V362.75C321.984 362.75 334.001 361.116 344.397 358.269C354.642 355.463 363.945 351.306 370.028 345.831L361.331 336.169ZM309.93 349.75C286.66 349.75 267.685 342.989 254.641 331.893C241.679 320.867 234.18 305.25 234.18 286.5H221.18C221.18 309 230.305 328.258 246.218 341.795C262.049 355.261 284.199 362.75 309.93 362.75V349.75ZM234.18 286.5C234.18 251.264 263.08 223.75 301.93 223.75V210.75C256.779 210.75 221.18 243.236 221.18 286.5H234.18ZM301.93 223.75C319.262 223.75 335.83 230.553 348.036 241.183C360.264 251.832 367.68 265.905 367.68 280.25H380.68C380.68 261.345 370.971 243.918 356.574 231.38C342.154 218.822 322.597 210.75 301.93 210.75V223.75ZM367.68 280.25C367.68 286.375 366.256 288.958 364.675 290.309C362.828 291.888 359.114 293.25 351.43 293.25V306.25C359.995 306.25 367.656 304.862 373.122 300.191C378.853 295.292 380.68 288.125 380.68 280.25H367.68ZM351.43 293.25H286.18V306.25H351.43V293.25ZM302.43 251.5C296.866 251.5 291.876 253.242 287.917 257.01C284.12 260.625 281.803 265.598 280.383 271.136L292.976 274.364C294.056 270.152 295.49 267.75 296.88 266.427C298.108 265.258 299.743 264.5 302.43 264.5V251.5ZM286.68 279.25H316.68V266.25H286.68V279.25ZM323.124 271.902C322.382 266.263 320.431 261.11 316.769 257.305C312.984 253.372 307.962 251.5 302.43 251.5V264.5C304.898 264.5 306.376 265.253 307.403 266.32C308.553 267.515 309.727 269.737 310.235 273.598L323.124 271.902ZM435.947 387.75C435.947 399.51 426.26 409 414.197 409V422C433.135 422 448.947 406.99 448.947 387.75H435.947ZM414.197 409C402.614 409 393.447 399.738 393.447 388H380.447C380.447 406.762 395.28 422 414.197 422V409ZM393.447 388V245.25H380.447V388H393.447ZM393.447 245.25C393.447 233.397 402.727 223.75 414.447 223.75V210.75C395.168 210.75 380.447 226.603 380.447 245.25H393.447ZM414.447 223.75C426.07 223.75 435.947 233.552 435.947 245.5H448.947C448.947 226.448 433.325 210.75 414.447 210.75V223.75ZM435.947 245.5V387.75H448.947V245.5H435.947ZM391.447 180.5C391.447 167.803 401.573 157.75 413.947 157.75V144.75C394.321 144.75 378.447 160.697 378.447 180.5H391.447ZM413.947 157.75C426.734 157.75 436.697 167.705 436.697 178.75H449.697C449.697 159.795 433.16 144.75 413.947 144.75V157.75ZM436.697 178.75C436.697 194.143 425.666 205.25 413.947 205.25V218.25C434.228 218.25 449.697 199.857 449.697 178.75H436.697ZM413.947 205.25C401.985 205.25 391.447 194.625 391.447 180.5H378.447C378.447 200.875 393.91 218.25 413.947 218.25V205.25ZM506.236 328.25C506.236 340.236 496.322 350 484.986 350V363C503.651 363 519.236 347.264 519.236 328.25H506.236ZM484.986 350C473.151 350 463.486 340.236 463.486 328.25H450.486C450.486 347.264 465.822 363 484.986 363V350ZM463.486 328.25V185H450.486V328.25H463.486ZM463.486 185C463.486 173.779 472.884 164.25 485.236 164.25V151.25C466.089 151.25 450.486 166.221 450.486 185H463.486ZM485.236 164.25C496.608 164.25 506.236 173.802 506.236 185.5H519.236C519.236 166.698 503.864 151.25 485.236 151.25V164.25ZM506.236 185.5V328.25H519.236V185.5H506.236ZM621.305 228L617.165 233.011L621.145 236.299L625.248 233.167L621.305 228ZM621.305 344.25L625.398 339.201L621.159 335.763L617.04 339.345L621.305 344.25ZM625.248 233.167C629.759 229.725 633.829 227.167 637.249 225.498C640.8 223.765 643.125 223.25 644.305 223.25V210.25C640.234 210.25 635.81 211.735 631.548 213.815C627.155 215.958 622.35 219.025 617.361 222.833L625.248 233.167ZM644.305 223.25C656.004 223.25 665.305 232.378 665.305 244.25H678.305C678.305 225.122 663.106 210.25 644.305 210.25V223.25ZM665.305 244.25V328.25H678.305V244.25H665.305ZM665.305 328.25C665.305 339.986 655.639 349.75 644.055 349.75V362.75C662.97 362.75 678.305 347.014 678.305 328.25H665.305ZM644.055 349.75C643.032 349.75 640.798 349.222 637.234 347.325C633.834 345.515 629.811 342.779 625.398 339.201L617.211 349.299C622.049 353.221 626.775 356.485 631.126 358.8C635.311 361.028 639.827 362.75 644.055 362.75V349.75ZM617.04 339.345C611.393 344.255 608.081 346.513 604.639 347.769C601.161 349.038 596.959 349.5 589.055 349.5V362.5C597.15 362.5 603.323 362.087 609.095 359.981C614.903 357.862 619.716 354.245 625.57 349.155L617.04 339.345ZM589.055 349.5C557.195 349.5 531.055 322.718 531.055 288H518.055C518.055 329.282 549.414 362.5 589.055 362.5V349.5ZM531.055 288C531.055 251.537 557.923 223 590.055 223V210C549.686 210 518.055 245.462 518.055 288H531.055ZM590.055 223C596.803 223 600.836 223.497 604.389 224.794C607.965 226.099 611.596 228.41 617.165 233.011L625.444 222.989C619.514 218.09 614.519 214.651 608.845 212.581C603.148 210.503 597.306 210 590.055 210V223ZM598.805 259C583.079 259 573.555 272.662 573.555 288.25H586.555C586.555 277.338 592.53 272 598.805 272V259ZM573.555 288.25C573.555 302.935 584.343 315.75 598.805 315.75V302.75C592.766 302.75 586.555 297.065 586.555 288.25H573.555ZM598.805 315.75C613.952 315.75 624.305 302.475 624.305 287.5H611.305C611.305 297.025 605.157 302.75 598.805 302.75V315.75ZM624.305 287.5C624.305 272.145 614.556 259 598.805 259V272C605.553 272 611.305 277.355 611.305 287.5H624.305Z" fill="white"/>
<mask id="path-7-outside-2_540_20" maskUnits="userSpaceOnUse" x="94" y="143" width="586" height="281" fill="black">
<rect fill="white" x="94" y="143" width="586" height="281"/>
<path d="M160.25 304.25H202.5C216.25 304.25 227.25 315.5 227.25 329.5C227.25 343 216 354 202.5 354H132.25C114.75 354 102.25 341 102.25 323V201C102.25 184.75 115 171.75 131 171.75C147.25 171.75 160.25 184.75 160.25 201V304.25ZM286.18 299.75C291.68 305.5 294.43 307.75 299.93 309.5C304.43 310.75 309.43 311.25 315.18 311.25C322.43 311.25 328.93 310.5 338.68 307.75C344.93 306.25 349.43 305.25 352.68 305.25C363.68 305.25 373.18 314.25 373.18 324.5C373.18 330.75 370.18 337 365.68 341C355.68 350 332.93 356.25 309.93 356.25C260.93 356.25 227.68 327.75 227.68 286.5C227.68 247.25 259.93 217.25 301.93 217.25C339.93 217.25 374.18 247 374.18 280.25C374.18 294.25 367.68 299.75 351.43 299.75H286.18ZM302.43 258C294.18 258 289.18 263 286.68 272.75H316.68C315.43 263.25 310.43 258 302.43 258ZM442.447 387.75C442.447 403.25 429.697 415.5 414.197 415.5C398.947 415.5 386.947 403.25 386.947 388V245.25C386.947 230 398.947 217.25 414.447 217.25C429.697 217.25 442.447 230 442.447 245.5V387.75ZM384.947 180.5C384.947 164.25 397.947 151.25 413.947 151.25C429.947 151.25 443.197 163.75 443.197 178.75C443.197 197 429.947 211.75 413.947 211.75C397.947 211.75 384.947 197.75 384.947 180.5ZM512.736 328.25C512.736 343.75 499.986 356.5 484.986 356.5C469.486 356.5 456.986 343.75 456.986 328.25V185C456.986 170 469.486 157.75 485.236 157.75C500.236 157.75 512.736 170.25 512.736 185.5V328.25ZM621.305 228C630.805 220.75 639.055 216.75 644.305 216.75C659.555 216.75 671.805 228.75 671.805 244.25V328.25C671.805 343.5 659.305 356.25 644.055 356.25C638.805 356.25 630.555 351.75 621.305 344.25C609.805 354.25 605.055 356 589.055 356C553.305 356 524.555 326 524.555 288C524.555 248.5 553.805 216.5 590.055 216.5C604.055 216.5 609.805 218.5 621.305 228ZM598.805 265.5C587.805 265.5 580.055 275 580.055 288.25C580.055 300 588.555 309.25 598.805 309.25C609.555 309.25 617.805 299.75 617.805 287.5C617.805 274.75 610.055 265.5 598.805 265.5Z"/>
</mask>
<path d="M160.25 304.25H152.25V312.25H160.25V304.25ZM160.25 312.25H202.5V296.25H160.25V312.25ZM202.5 312.25C211.676 312.25 219.25 319.761 219.25 329.5H235.25C235.25 311.239 220.824 296.25 202.5 296.25V312.25ZM219.25 329.5C219.25 338.477 211.688 346 202.5 346V362C220.312 362 235.25 347.523 235.25 329.5H219.25ZM202.5 346H132.25V362H202.5V346ZM132.25 346C119.428 346 110.25 336.846 110.25 323H94.25C94.25 345.154 110.072 362 132.25 362V346ZM110.25 323V201H94.25V323H110.25ZM110.25 201C110.25 189.033 119.553 179.75 131 179.75V163.75C110.447 163.75 94.25 180.467 94.25 201H110.25ZM131 179.75C142.832 179.75 152.25 189.168 152.25 201H168.25C168.25 180.332 151.668 163.75 131 163.75V179.75ZM152.25 201V304.25H168.25V201H152.25ZM286.18 299.75V291.75H267.457L280.399 305.28L286.18 299.75ZM299.93 309.5L297.504 317.123L297.646 317.168L297.789 317.208L299.93 309.5ZM338.68 307.75L336.813 299.971L336.66 300.008L336.508 300.05L338.68 307.75ZM365.68 341L360.365 335.021L360.346 335.037L360.328 335.054L365.68 341ZM286.68 272.75L278.93 270.763L276.37 280.75H286.68V272.75ZM316.68 272.75V280.75H325.801L324.611 271.706L316.68 272.75ZM280.399 305.28C286.21 311.355 290.088 314.764 297.504 317.123L302.355 301.877C298.772 300.736 297.15 299.645 291.961 294.22L280.399 305.28ZM297.789 317.208C303.22 318.717 308.997 319.25 315.18 319.25V303.25C309.862 303.25 305.64 302.783 302.071 301.792L297.789 317.208ZM315.18 319.25C323.199 319.25 330.429 318.389 340.851 315.45L336.508 300.05C327.43 302.611 321.661 303.25 315.18 303.25V319.25ZM340.547 315.529C347.119 313.952 350.584 313.25 352.68 313.25V297.25C348.275 297.25 342.741 298.548 336.813 299.971L340.547 315.529ZM352.68 313.25C359.721 313.25 365.18 319.114 365.18 324.5H381.18C381.18 309.386 367.638 297.25 352.68 297.25V313.25ZM365.18 324.5C365.18 328.346 363.248 332.458 360.365 335.021L370.995 346.979C377.111 341.542 381.18 333.154 381.18 324.5H365.18ZM360.328 335.054C356.661 338.354 349.847 341.742 340.566 344.284C331.472 346.775 320.747 348.25 309.93 348.25V364.25C322.112 364.25 334.262 362.6 344.793 359.716C355.138 356.883 364.698 352.646 371.031 346.946L360.328 335.054ZM309.93 348.25C286.944 348.25 268.336 341.572 255.613 330.75C242.992 320.014 235.68 304.817 235.68 286.5H219.68C219.68 309.433 228.993 329.111 245.246 342.937C261.399 356.678 283.915 364.25 309.93 364.25V348.25ZM235.68 286.5C235.68 252.19 263.807 225.25 301.93 225.25V209.25C256.052 209.25 219.68 242.31 219.68 286.5H235.68ZM301.93 225.25C318.877 225.25 335.101 231.907 347.051 242.314C359.028 252.745 366.18 266.431 366.18 280.25H382.18C382.18 260.819 372.206 243.005 357.559 230.248C342.884 217.468 322.982 209.25 301.93 209.25V225.25ZM366.18 280.25C366.18 286.173 364.803 288.227 363.701 289.169C362.271 290.391 359.012 291.75 351.43 291.75V307.75C360.097 307.75 368.213 306.359 374.096 301.331C380.307 296.023 382.18 288.327 382.18 280.25H366.18ZM351.43 291.75H286.18V307.75H351.43V291.75ZM302.43 250C296.534 250 291.157 251.856 286.883 255.924C282.808 259.803 280.39 265.072 278.93 270.763L294.429 274.737C295.47 270.678 296.802 268.572 297.914 267.514C298.827 266.644 300.075 266 302.43 266V250ZM286.68 280.75H316.68V264.75H286.68V280.75ZM324.611 271.706C323.842 265.862 321.802 260.371 317.85 256.265C313.746 252.001 308.315 250 302.43 250V266C304.544 266 305.613 266.624 306.322 267.36C307.183 268.254 308.267 270.138 308.748 273.794L324.611 271.706ZM434.447 387.75C434.447 398.647 425.466 407.5 414.197 407.5V423.5C433.928 423.5 450.447 407.853 450.447 387.75H434.447ZM414.197 407.5C403.461 407.5 394.947 398.927 394.947 388H378.947C378.947 407.573 394.434 423.5 414.197 423.5V407.5ZM394.947 388V245.25H378.947V388H394.947ZM394.947 245.25C394.947 234.182 403.599 225.25 414.447 225.25V209.25C394.296 209.25 378.947 225.818 378.947 245.25H394.947ZM414.447 225.25C425.233 225.25 434.447 234.372 434.447 245.5H450.447C450.447 225.628 434.162 209.25 414.447 209.25V225.25ZM434.447 245.5V387.75H450.447V245.5H434.447ZM392.947 180.5C392.947 168.623 402.41 159.25 413.947 159.25V143.25C393.484 143.25 376.947 159.877 376.947 180.5H392.947ZM413.947 159.25C425.993 159.25 435.197 168.618 435.197 178.75H451.197C451.197 158.882 433.902 143.25 413.947 143.25V159.25ZM435.197 178.75C435.197 193.483 424.678 203.75 413.947 203.75V219.75C435.216 219.75 451.197 200.517 451.197 178.75H435.197ZM413.947 203.75C402.917 203.75 392.947 193.904 392.947 180.5H376.947C376.947 201.596 392.978 219.75 413.947 219.75V203.75ZM504.736 328.25C504.736 339.425 495.476 348.5 484.986 348.5V364.5C504.497 364.5 520.736 348.075 520.736 328.25H504.736ZM484.986 348.5C473.997 348.5 464.986 339.425 464.986 328.25H448.986C448.986 348.075 464.976 364.5 484.986 364.5V348.5ZM464.986 328.25V185H448.986V328.25H464.986ZM464.986 185C464.986 174.651 473.668 165.75 485.236 165.75V149.75C465.305 149.75 448.986 165.349 448.986 185H464.986ZM485.236 165.75C495.771 165.75 504.736 174.621 504.736 185.5H520.736C520.736 165.879 504.702 149.75 485.236 149.75V165.75ZM504.736 185.5V328.25H520.736V185.5H504.736ZM621.305 228L616.21 234.168L621.108 238.214L626.158 234.36L621.305 228ZM621.305 344.25L626.343 338.036L621.125 333.805L616.055 338.213L621.305 344.25ZM626.158 234.36C630.614 230.959 634.599 228.46 637.907 226.846C641.375 225.153 643.459 224.75 644.305 224.75V208.75C639.9 208.75 635.234 210.347 630.89 212.467C626.385 214.665 621.495 217.791 616.451 221.64L626.158 234.36ZM644.305 224.75C655.184 224.75 663.805 233.216 663.805 244.25H679.805C679.805 224.284 663.925 208.75 644.305 208.75V224.75ZM663.805 244.25V328.25H679.805V244.25H663.805ZM663.805 328.25C663.805 339.175 654.794 348.25 644.055 348.25V364.25C663.816 364.25 679.805 347.825 679.805 328.25H663.805ZM644.055 348.25C643.402 348.25 641.432 347.86 637.938 346.001C634.649 344.25 630.707 341.574 626.343 338.036L616.266 350.464C621.153 354.426 625.96 357.75 630.421 360.124C634.678 362.39 639.457 364.25 644.055 364.25V348.25ZM616.055 338.213C610.432 343.103 607.294 345.203 604.125 346.36C600.912 347.532 596.937 348 589.055 348V364C597.172 364 603.573 363.593 609.609 361.39C615.691 359.172 620.677 355.397 626.554 350.287L616.055 338.213ZM589.055 348C558.093 348 532.555 321.961 532.555 288H516.555C516.555 330.039 548.517 364 589.055 364V348ZM532.555 288C532.555 252.238 558.873 224.5 590.055 224.5V208.5C548.736 208.5 516.555 244.762 516.555 288H532.555ZM590.055 224.5C596.745 224.5 600.57 224.997 603.875 226.203C607.209 227.419 610.682 229.601 616.21 234.168L626.4 221.832C620.428 216.899 615.275 213.331 609.359 211.172C603.415 209.003 597.364 208.5 590.055 208.5V224.5ZM598.805 257.5C581.989 257.5 572.055 272.123 572.055 288.25H588.055C588.055 277.877 593.621 273.5 598.805 273.5V257.5ZM572.055 288.25C572.055 303.612 583.371 317.25 598.805 317.25V301.25C593.738 301.25 588.055 296.388 588.055 288.25H572.055ZM598.805 317.25C614.967 317.25 625.805 303.104 625.805 287.5H609.805C609.805 296.396 604.143 301.25 598.805 301.25V317.25ZM625.805 287.5C625.805 271.544 615.595 257.5 598.805 257.5V273.5C604.515 273.5 609.805 277.956 609.805 287.5H625.805Z" fill="#FF0F00" mask="url(#path-7-outside-2_540_20)"/>
<defs>
<linearGradient id="paint0_linear_540_20" x1="387" y1="100" x2="387" y2="417" gradientUnits="userSpaceOnUse">
<stop stop-color="#FF0000"/>
<stop offset="1" stop-color="#FF8A00"/>
</linearGradient>
</defs>
</svg>
